<?xml version="1.0" encoding="UTF-8"?>
<svg id="Layer_1" xmlns="http://www.w3.org/2000/svg" viewBox="0 0 100 62.96">
  <defs>
    <style>
      .cls-1 {
        fill: #fff;
        opacity: 10%;
      }
    </style>
  </defs>
  <path class="cls-1" d="M63.46,31.92c0-.29,0-.58,0-.88,0-.16,0-.32-.01-.47,0-.16-.01-.32-.02-.47-.02-.32-.03-.63-.06-.95-.02-.22-.03-.43-.06-.65-.15-1.52-.41-3.03-.79-4.55-.28-1.14-.62-2.24-1.02-3.33-.07-.18-.14-.36-.21-.54-.07-.18-.14-.36-.21-.53-.06-.16-.13-.32-.2-.47-.06-.15-.13-.29-.19-.43-.07-.17-.15-.33-.23-.5-.07-.14-.14-.29-.21-.43-.01-.03-.02-.06-.04-.08-.14-.29-.29-.57-.44-.86-.17-.32-.35-.64-.54-.96-1.28-2.19-2.84-4.25-4.7-6.18-2.61-2.71-5.72-4.97-9.11-6.6-.01,0-.03-.01-.04-.02-1.8-.86-3.64-1.55-5.53-2.04-.07-.02-.14-.03-.22-.06C37.34.36,34.97.04,32.53,0c-.18,0-.36,0-.53,0-.09,0-.18,0-.27,0h-.26c-.18,0-.36,0-.54,0-1.12.02-2.24.1-3.34.25-.16.02-.32.04-.48.06-.1.01-.2.03-.3.05-.07.01-.13.02-.2.03-6.69,1.08-12.89,4.36-17.69,9.26-3.99,4.15-6.65,8.92-7.99,14.3-.38,1.52-.64,3.03-.79,4.55-.02.22-.04.43-.06.65-.02.32-.04.63-.06.94,0,.16-.01.32-.02.47,0,.16,0,.32-.01.47,0,.29,0,.59,0,.88v.47c.02.16.02.32.03.47.02.32.03.63.06.95.02.22.04.43.06.65.04.43.09.87.16,1.3.2,1.43.5,2.86.9,4.3.04.14.09.29.13.43.14.45.28.9.44,1.34.13.37.26.74.41,1.1.06.16.13.32.19.48.06.16.13.32.2.47.06.15.13.29.19.43.15.34.31.68.48,1.01.14.29.29.57.44.86.09.16.18.32.26.48.09.16.18.32.27.48.07.11.13.22.2.34.03.04.05.08.08.13,3.43,5.72,8.64,10.46,14.76,12.95,1.41.58,2.87,1.05,4.34,1.42.07.02.14.04.22.06,2.33.57,4.71.88,7.1.93.18,0,.35,0,.53,0h.53c.18,0,.36,0,.54,0,1.28-.03,2.57-.13,3.84-.32.16-.02.33-.05.5-.07,2.5-.39,4.97-1.06,7.32-2.02,8.85-3.61,15.46-11.33,18.06-20.49.2-.72.37-1.44.53-2.16,0-.01,0-.02,0-.04.07-.35.14-.7.2-1.06.01-.07.02-.15.04-.22.05-.31.1-.63.15-.94.05-.39.1-.79.14-1.18.02-.21.04-.43.06-.65.02-.32.04-.63.06-.94,0-.16.01-.32.02-.47,0-.16,0-.32.01-.47ZM57.52,39.99c-.44,5.7-2.59,10.25-6.46,13.64-3.87,3.39-8.64,4.88-14.3,4.48-1.69-.12-3.37-.4-5.03-.85-3.35-.89-6.64-2.45-9.86-4.66-3.13-2.15-5.86-4.69-8.18-7.63-.01-.02-.03-.03-.04-.05-.65-.8-1.26-1.6-1.82-2.41-4.35-6.2-6.31-12.73-5.88-19.56.44-5.7,2.59-10.25,6.46-13.64,3.87-3.39,8.64-4.88,14.3-4.48,1.69.12,3.37.4,5.03.85,3.35.89,6.64,2.45,9.86,4.66,3.12,2.14,5.84,4.67,8.15,7.6.68.83,1.31,1.66,1.89,2.49,4.35,6.2,6.31,12.73,5.88,19.56Z"/>
  <g>
    <path class="cls-1" d="M99.98,32.39c0,.16-.01.32-.02.47-.02.31-.03.63-.06.94-.02.22-.03.43-.06.65-.15,1.52-.41,3.03-.79,4.55-1.34,5.38-4,10.15-7.99,14.3-4.8,4.89-10.98,8.17-17.67,9.26-.17.03-.33.06-.5.07-1.27.19-2.55.29-3.84.32-.18,0-.36,0-.54,0h-.53c-.18,0-.35,0-.53,0-2.44-.04-4.81-.35-7.1-.93-.07-.02-.15-.04-.22-.06-1.89-.49-3.74-1.18-5.53-2.04-.01,0-.03-.01-.04-.02-.99-.47-1.96-1.01-2.89-1.59,2.33-1.72,4.43-3.76,6.24-6.04.16.11.32.23.49.35,3.22,2.21,6.51,3.76,9.86,4.66,1.66.45,3.34.73,5.03.85,5.66.4,10.43-1.1,14.3-4.48,3.87-3.39,6.02-7.94,6.46-13.64.43-6.83-1.53-13.35-5.88-19.56-.59-.84-1.22-1.67-1.89-2.49-2.31-2.92-5.03-5.45-8.15-7.6-3.22-2.21-6.51-3.76-9.86-4.66-1.66-.45-3.34-.73-5.03-.85-3.57-.25-6.79.25-9.65,1.51-.69-.6-1.41-1.17-2.15-1.71,1.38-.85,2.84-1.6,4.37-2.22,2.37-.97,4.84-1.64,7.35-2.03.07-.01.13-.02.2-.03.1-.02.2-.03.3-.05.16-.02.32-.04.48-.06,1.11-.14,2.22-.22,3.34-.25.18,0,.36,0,.54,0h.26c.09,0,.18,0,.27,0,.18,0,.35,0,.53,0,2.39.06,4.78.37,7.1.93.07.02.14.04.22.06,1.48.37,2.93.84,4.34,1.42,6.28,2.56,11.62,7.48,15.04,13.42.19.32.36.63.54.96.15.28.3.57.44.86.02.02.03.05.04.08.07.14.14.29.21.43.08.16.16.33.23.5.07.14.13.29.19.43.07.15.14.31.2.47.07.18.15.35.21.53.07.18.14.36.21.54.28.75.54,1.51.75,2.28.2.7.36,1.4.51,2.1.01.05.02.1.03.15.07.32.13.65.19.97.02.1.03.21.05.31.05.29.1.58.13.87.05.4.1.79.14,1.19.02.22.04.43.06.65.02.32.04.63.06.95,0,.15.01.31.02.47,0,.16,0,.32.01.47,0,.29,0,.58,0,.88,0,.16,0,.32-.01.47Z"/>
    <path class="cls-1" d="M41.04,47.59s-.05-.08-.08-.13c-.07-.11-.13-.22-.2-.34-.09-.16-.18-.32-.27-.48-.09-.16-.18-.32-.26-.48-.15-.28-.3-.57-.44-.86-.17-.33-.33-.67-.48-1.01-.07-.14-.13-.29-.19-.43-.07-.15-.14-.31-.2-.47-.07-.16-.13-.32-.19-.48-.14-.36-.28-.73-.41-1.1-.16-.44-.3-.89-.44-1.34-.14-.49-.28-.98-.4-1.48-.27-1.09-.48-2.17-.63-3.25-.06-.43-.12-.87-.16-1.3-.02-.22-.04-.43-.06-.65-.02-.32-.04-.63-.06-.95,0-.15-.01-.31-.02-.47v-.47c-.01-.29-.01-.58-.01-.88,0-.16,0-.32.01-.47,0-.16.01-.32.02-.47.02-.31.03-.63.06-.94.02-.22.04-.43.06-.65.04-.39.09-.79.14-1.18.04-.31.09-.63.15-.94.01-.07.02-.14.04-.22.06-.35.13-.71.2-1.06,0-.01,0-.02,0-.03.15-.72.32-1.44.53-2.17,1-3.52,2.59-6.83,4.68-9.78.74.58,1.46,1.19,2.16,1.83-1.17,2.35-1.88,5.02-2.11,8.01-.43,6.83,1.53,13.35,5.88,19.56.57.81,1.17,1.61,1.82,2.41.01.02.02.03.04.05.94,1.19,1.95,2.31,3.02,3.37-.88,1.47-1.99,2.79-3.34,3.96-1,.88-2.07,1.61-3.19,2.21-.43-.4-.85-.8-1.25-1.22-1.72-1.79-3.2-3.7-4.43-5.72Z"/>
  </g>
</svg>