<?xml version="1.0" encoding="UTF-8"?>
<svg id="Layer_1" xmlns="http://www.w3.org/2000/svg" viewBox="0 0 841.08 393.68">
  <defs>
    <style>
      .cls-1, .cls-2 {
        fill: #494c3f;
      }

      .cls-2 {
        font-family: AktivGroteskGeor-SemiBold, 'Aktiv Grotesk Geor';
        font-size: 25px;
        font-weight: 600;
        letter-spacing: .2em;
      }
    </style>
  </defs>
  <g>
    <path class="cls-1" d="M282.18,374.55l5.67-17.01h4.26l-7.71,21.42h-4.56l-7.68-21.42h4.41l5.61,17.01Z"/>
    <path class="cls-1" d="M300.72,357.54h4.02v21.42h-4.02v-21.42Z"/>
    <path class="cls-1" d="M327.3,373.08c0-.7-.21-1.32-.65-1.86-.43-.54-1.31-.93-2.65-1.17l-2.76-.51c-2.22-.4-3.9-1.06-5.05-2-1.15-.93-1.72-2.36-1.72-4.3,0-1.38.35-2.53,1.06-3.45s1.68-1.61,2.92-2.08c1.24-.47,2.67-.71,4.29-.71,1.86,0,3.37.27,4.52.79,1.15.53,2.02,1.24,2.61,2.12s.98,1.87,1.16,2.97l-3.81.54c-.28-1.08-.74-1.88-1.38-2.42-.64-.53-1.68-.79-3.12-.79-1.58,0-2.69.27-3.33.81-.64.54-.96,1.22-.96,2.04s.24,1.48.72,1.92c.48.44,1.35.77,2.61.99l2.97.57c2.32.44,4.01,1.16,5.07,2.16,1.06,1,1.59,2.43,1.59,4.29s-.71,3.46-2.12,4.68c-1.41,1.22-3.5,1.83-6.25,1.83s-4.78-.56-6.36-1.68-2.47-2.87-2.67-5.25h3.99c.2,1.28.71,2.21,1.53,2.8.82.59,2.03.88,3.63.88s2.64-.3,3.25-.92.92-1.36.92-2.26Z"/>
    <path class="cls-1" d="M340.65,370.23v-12.69h4.02v12.87c0,1.88.35,3.29,1.07,4.23.71.94,1.85,1.41,3.43,1.41s2.8-.47,3.48-1.41c.68-.94,1.02-2.35,1.02-4.23v-12.87h3.99v12.78c0,3.16-.74,5.48-2.22,6.96-1.48,1.48-3.58,2.22-6.3,2.22s-4.84-.75-6.3-2.23c-1.46-1.49-2.19-3.83-2.19-7.04Z"/>
    <path class="cls-1" d="M369.12,378.96h-4.05l7.92-21.42h4.59l7.86,21.42h-4.17l-1.86-5.19h-8.46l-1.83,5.19ZM375.18,361.26l-3.18,9.21h6.39l-3.21-9.21Z"/>
    <path class="cls-1" d="M394.05,357.54h4.02v17.91h10.44l-.48,3.51h-13.98v-21.42Z"/>
    <path class="cls-1" d="M442.08,373.08c0-.7-.21-1.32-.65-1.86-.43-.54-1.31-.93-2.65-1.17l-2.76-.51c-2.22-.4-3.9-1.06-5.05-2-1.15-.93-1.72-2.36-1.72-4.3,0-1.38.35-2.53,1.06-3.45s1.68-1.61,2.92-2.08c1.24-.47,2.67-.71,4.29-.71,1.86,0,3.37.27,4.52.79,1.15.53,2.02,1.24,2.61,2.12s.98,1.87,1.16,2.97l-3.81.54c-.28-1.08-.74-1.88-1.38-2.42-.64-.53-1.68-.79-3.12-.79-1.58,0-2.69.27-3.33.81-.64.54-.96,1.22-.96,2.04s.24,1.48.72,1.92c.48.44,1.35.77,2.61.99l2.97.57c2.32.44,4.01,1.16,5.07,2.16,1.06,1,1.59,2.43,1.59,4.29s-.71,3.46-2.12,4.68c-1.41,1.22-3.5,1.83-6.25,1.83s-4.78-.56-6.36-1.68-2.47-2.87-2.67-5.25h3.99c.2,1.28.71,2.21,1.53,2.8.82.59,2.03.88,3.63.88s2.64-.3,3.25-.92.92-1.36.92-2.26Z"/>
    <path class="cls-1" d="M460.5,361.05h-6.75v-3.51h17.52v3.51h-6.78v17.91h-3.99v-17.91Z"/>
    <path class="cls-1" d="M479.85,370.23v-12.69h4.02v12.87c0,1.88.35,3.29,1.07,4.23.71.94,1.85,1.41,3.43,1.41s2.8-.47,3.48-1.41c.68-.94,1.02-2.35,1.02-4.23v-12.87h3.99v12.78c0,3.16-.74,5.48-2.22,6.96-1.48,1.48-3.58,2.22-6.3,2.22s-4.84-.75-6.3-2.23c-1.46-1.49-2.19-3.83-2.19-7.04Z"/>
    <path class="cls-1" d="M507.03,357.54h7.89c3.28,0,5.82.88,7.63,2.64,1.81,1.76,2.71,4.4,2.71,7.92s-.96,6.26-2.86,8.1c-1.91,1.84-4.57,2.76-7.97,2.76h-7.41v-21.42ZM521.16,368.16c0-2.32-.49-4.1-1.47-5.35-.98-1.25-2.54-1.88-4.68-1.88h-4.02v14.61h3.63c2.26,0,3.92-.64,4.96-1.92,1.05-1.28,1.58-3.1,1.58-5.46Z"/>
    <path class="cls-1" d="M534.93,357.54h4.02v21.42h-4.02v-21.42Z"/>
    <path class="cls-1" d="M548.64,368.31c0-2.4.42-4.45,1.28-6.14.85-1.69,2.03-2.97,3.55-3.85,1.52-.88,3.3-1.32,5.34-1.32s3.84.44,5.36,1.31c1.51.87,2.68,2.13,3.51,3.79.83,1.66,1.25,3.68,1.25,6.06s-.42,4.45-1.25,6.13c-.83,1.69-2.01,2.98-3.53,3.87s-3.32,1.33-5.4,1.33-3.82-.43-5.34-1.3c-1.52-.87-2.7-2.13-3.52-3.79-.83-1.66-1.25-3.69-1.25-6.09ZM552.78,368.25c0,2.42.5,4.33,1.5,5.71,1,1.39,2.5,2.08,4.5,2.08s3.45-.69,4.46-2.08c1.01-1.39,1.52-3.29,1.52-5.71s-.51-4.3-1.52-5.7c-1.01-1.4-2.5-2.1-4.46-2.1s-3.5.7-4.5,2.1c-1,1.4-1.5,3.3-1.5,5.7Z"/>
  </g>
  <g>
    <g>
      <path class="cls-1" d="M143.1,283.51c0,6.61,1.71,12.65,5.13,18.12l3.25,5.3h-41.36l3.25-5.3c3.42-5.47,5.13-11.51,5.13-18.12v-132.79c0-6.72-1.71-12.82-5.13-18.29l-3.25-5.3h41.36l-3.25,5.3c-3.42,5.47-5.13,11.57-5.13,18.29v132.79Z"/>
      <path class="cls-1" d="M297.15,306.93h-49.73c5.24-6.84,7.86-14.64,7.86-23.41,0-5.81-.8-10.31-2.39-13.5l-31.27-78.44-12.82,10.77v81.18c0,6.61,1.71,12.65,5.13,18.12l3.25,5.3h-41.36l3.25-5.3c3.42-5.47,5.13-11.51,5.13-18.12v-132.79c0-6.72-1.71-12.82-5.13-18.29l-3.25-5.3h41.36l-3.25,5.3c-3.42,5.47-5.13,11.57-5.13,18.29v37.08l55.2-47c2.39-2.39,3.59-4.84,3.59-7.35,0-1.03-.14-2.05-.43-3.08-.29-1.03-.6-1.82-.94-2.39l-.51-.85h31.27l-55.71,47.85,40.33,100.66c4.44,11.28,8.54,19.94,12.3,25.98l3.25,5.3Z"/>
      <path class="cls-1" d="M349.34,283.51c0,6.61,1.71,12.65,5.13,18.12l3.25,5.3h-41.36l3.25-5.3c3.42-5.47,5.13-11.51,5.13-18.12v-132.79c0-6.72-1.71-12.82-5.13-18.29l-3.25-5.3h41.36l-3.25,5.3c-3.42,5.47-5.13,11.57-5.13,18.29v132.79Z"/>
      <path class="cls-1" d="M558.93,239.25l-3.25,5.3c-3.42,5.47-5.13,11.57-5.13,18.29v20.51c0,6.72,1.71,12.82,5.13,18.29l3.25,5.3h-32.98v-18.12l-1.88,1.37c-18.46,12.99-38.79,18.46-61.01,16.41s-41.19-11.11-56.91-27.17c-11.39-11.85-19-25.46-22.82-40.84-3.82-15.38-3.56-30.7.77-45.97,4.33-15.27,12.36-28.6,24.1-39.99,17.89-16.97,39.02-25.46,63.4-25.46,12.19,0,23.95,2.31,35.29,6.92,11.33,4.61,21.33,11.42,29.99,20.42l.85,1.03c10.37,10.94,17.6,23.47,21.7,37.6h-26.83c-8.32-14.81-19.37-26.94-33.15-36.4-13.79-9.46-27.97-14.7-42.55-15.72-16.18-1.14-29.79,3.13-40.84,12.82-11.05,9.69-17.21,22.67-18.46,38.96-1.48,23.58,7.01,45.86,25.46,66.82,8.66,9.8,18.43,17.58,29.31,23.33,10.88,5.75,21.96,8.97,33.24,9.66,15.72,1.03,29.05-2.96,39.99-11.96l.34-.34v-17.43c0-6.72-1.71-12.82-5.13-18.29l-3.08-5.3h41.19Z"/>
      <path class="cls-1" d="M636.41,306.93c1.82-2.96,2.91-4.79,3.25-5.47,1.48-2.85,2.28-5.75,2.39-8.72l-11.28-59.3h-19.48l-12.82,54.17c-.68,5.58.11,10.25,2.39,14.01l3.25,5.3h-27.69l3.08-5.3c1.59-2.85,2.5-4.56,2.73-5.13,2.05-4.67,4.73-12.3,8.03-22.9l25.12-107.84c1.14-4.67,1.71-9.68,1.71-15.04s-1.71-11.62-5.13-18.12c-.34-.68-.74-1.42-1.2-2.22-.46-.8-.8-1.45-1.03-1.96-.23-.51-.46-.94-.68-1.28h27.34l27.17,147.31c1.25,8.2,4.84,17.26,10.77,27.17,1.48,2.73,2.5,4.5,3.08,5.3h-41.02ZM613.86,222.33h14.87l-6.49-36.4-8.37,36.4Z"/>
      <path class="cls-1" d="M728.94,283.51c0,6.61,1.71,12.65,5.13,18.12l3.25,5.3h-41.36l3.25-5.3c3.42-5.47,5.13-11.51,5.13-18.12v-132.79c0-6.72-1.71-12.82-5.13-18.29l-3.25-5.3h41.36l-3.25,5.3c-3.42,5.47-5.13,11.57-5.13,18.29v132.79Z"/>
    </g>
    <text class="cls-2" transform="translate(21.27 209.22)"><tspan x="0" y="0">ES</tspan><tspan x="0" y="30">TD</tspan></text>
    <g>
      <path class="cls-1" d="M787.54,208.47c.67-.58,1.37-1.19,2.1-1.82s1.43-1.23,2.1-1.8c1.03-.9,1.87-1.68,2.51-2.34.64-.66,1.12-1.29,1.42-1.9.31-.61.46-1.27.46-1.99,0-.87-.23-1.53-.69-1.99-.46-.46-1.1-.69-1.94-.69-1,0-1.72.23-2.16.67-.44.45-.78,1.13-1.01,2.05l-3.02-.38c.18-.93.51-1.79.99-2.56.47-.77,1.15-1.39,2.01-1.85.87-.46,1.97-.69,3.32-.69,1.83,0,3.25.47,4.24,1.41.99.94,1.49,2.2,1.49,3.76,0,.9-.16,1.73-.48,2.5-.32.77-.81,1.54-1.49,2.31-.67.78-1.55,1.64-2.61,2.59-.4.37-.84.75-1.33,1.15s-1.01.83-1.58,1.3h7.7l-.38,2.73h-11.67v-2.48Z"/>
      <path class="cls-1" d="M806.84,202.35c0-3.13.57-5.44,1.71-6.92s2.74-2.23,4.79-2.23,3.65.73,4.75,2.2c1.1,1.47,1.65,3.77,1.65,6.9s-.56,5.41-1.67,6.89c-1.12,1.48-2.72,2.21-4.83,2.21s-3.65-.73-4.75-2.19c-1.1-1.46-1.65-3.75-1.65-6.86ZM810.14,202.32c0,2.08.23,3.65.69,4.71.46,1.06,1.28,1.59,2.46,1.59s2-.53,2.46-1.59c.46-1.06.69-2.63.69-4.71s-.23-3.66-.69-4.73c-.46-1.07-1.28-1.6-2.46-1.6s-2,.53-2.46,1.59c-.46,1.06-.69,2.64-.69,4.74Z"/>
      <path class="cls-1" d="M787.54,238.47c.67-.58,1.37-1.19,2.1-1.82s1.43-1.23,2.1-1.8c1.03-.9,1.87-1.68,2.51-2.34.64-.66,1.12-1.29,1.42-1.9.31-.61.46-1.27.46-1.99,0-.87-.23-1.53-.69-1.99-.46-.46-1.1-.69-1.94-.69-1,0-1.72.23-2.16.67-.44.45-.78,1.13-1.01,2.05l-3.02-.38c.18-.93.51-1.79.99-2.56.47-.77,1.15-1.39,2.01-1.85.87-.46,1.97-.69,3.32-.69,1.83,0,3.25.47,4.24,1.41.99.94,1.49,2.2,1.49,3.76,0,.9-.16,1.73-.48,2.5-.32.77-.81,1.54-1.49,2.31-.67.78-1.55,1.64-2.61,2.59-.4.37-.84.75-1.33,1.15s-1.01.83-1.58,1.3h7.7l-.38,2.73h-11.67v-2.48Z"/>
      <path class="cls-1" d="M814.66,237.02h-7.95v-2.4l7.83-10.95h3.07v10.92h2.2l-.33,2.43h-1.88v3.92h-2.95v-3.92ZM814.66,227.55l-4.98,7.05h4.98v-7.05Z"/>
    </g>
  </g>
  <g>
    <path class="cls-1" d="M433.99,46.1c0-.29,0-.58,0-.88,0-.16,0-.32-.01-.47,0-.16-.01-.32-.02-.47-.02-.32-.03-.63-.06-.95-.02-.22-.03-.43-.06-.65-.15-1.52-.41-3.03-.79-4.55-.28-1.14-.62-2.24-1.02-3.33-.07-.18-.14-.36-.21-.54-.07-.18-.14-.36-.21-.53-.06-.16-.13-.32-.2-.47-.06-.15-.13-.29-.19-.43-.07-.17-.15-.33-.23-.5-.07-.14-.14-.29-.21-.43-.01-.03-.02-.06-.04-.08-.14-.29-.29-.57-.44-.86-.17-.32-.35-.64-.54-.96-1.28-2.19-2.84-4.25-4.7-6.18-2.61-2.71-5.72-4.97-9.11-6.6-.01,0-.03-.01-.04-.02-1.8-.86-3.64-1.55-5.53-2.04-.07-.02-.14-.03-.22-.06-2.3-.59-4.67-.9-7.1-.93-.18,0-.36,0-.53,0-.09,0-.18,0-.27,0h-.26c-.18,0-.36,0-.54,0-1.12.02-2.24.1-3.34.25-.16.02-.32.04-.48.06-.1.01-.2.03-.3.05-.07.01-.13.02-.2.03-6.69,1.08-12.89,4.36-17.69,9.26-3.99,4.15-6.65,8.92-7.99,14.3-.38,1.52-.64,3.03-.79,4.55-.02.22-.04.43-.06.65-.02.32-.04.63-.06.94,0,.16-.01.32-.02.47,0,.16,0,.32-.01.47,0,.29,0,.59,0,.88v.47c.02.16.02.32.03.47.02.32.03.63.06.95.02.22.04.43.06.65.04.43.09.87.16,1.3.2,1.43.5,2.86.9,4.3.04.14.09.29.13.43.14.45.28.9.44,1.34.13.37.26.74.41,1.1.06.16.13.32.19.48.06.16.13.32.2.47.06.15.13.29.19.43.15.34.31.68.48,1.01.14.29.29.57.44.86.09.16.18.32.26.48.09.16.18.32.27.48.07.11.13.22.2.34.03.04.05.08.08.13,3.43,5.72,8.64,10.46,14.76,12.95,1.41.58,2.87,1.05,4.34,1.42.07.02.14.04.22.06,2.33.57,4.71.88,7.1.93.18,0,.35,0,.53,0h.53c.18,0,.36,0,.54,0,1.28-.03,2.57-.13,3.84-.32.16-.02.33-.05.5-.07,2.5-.39,4.97-1.06,7.32-2.02,8.85-3.61,15.46-11.33,18.06-20.49.2-.72.37-1.44.53-2.16,0-.01,0-.02,0-.04.07-.35.14-.7.2-1.06.01-.07.02-.15.04-.22.05-.31.1-.63.15-.94.05-.39.1-.79.14-1.18.02-.21.04-.43.06-.65.02-.32.04-.63.06-.94,0-.16.01-.32.02-.47,0-.16,0-.32.01-.47ZM428.06,54.17c-.44,5.7-2.59,10.25-6.46,13.64-3.87,3.39-8.64,4.88-14.3,4.48-1.69-.12-3.37-.4-5.03-.85-3.35-.89-6.64-2.45-9.86-4.66-3.13-2.15-5.86-4.69-8.18-7.63-.01-.02-.03-.03-.04-.05-.65-.8-1.26-1.6-1.82-2.41-4.35-6.2-6.31-12.73-5.88-19.56.44-5.7,2.59-10.25,6.46-13.64,3.87-3.39,8.64-4.88,14.3-4.48,1.69.12,3.37.4,5.03.85,3.35.89,6.64,2.45,9.86,4.66,3.12,2.14,5.84,4.67,8.15,7.6.68.83,1.31,1.66,1.89,2.49,4.35,6.2,6.31,12.73,5.88,19.56Z"/>
    <g>
      <path class="cls-1" d="M470.52,46.58c0,.16-.01.32-.02.47-.02.31-.03.63-.06.94-.02.22-.03.43-.06.65-.15,1.52-.41,3.03-.79,4.55-1.34,5.38-4,10.15-7.99,14.3-4.8,4.89-10.98,8.17-17.67,9.26-.17.03-.33.06-.5.07-1.27.19-2.55.29-3.84.32-.18,0-.36,0-.54,0h-.53c-.18,0-.35,0-.53,0-2.44-.04-4.81-.35-7.1-.93-.07-.02-.15-.04-.22-.06-1.89-.49-3.74-1.18-5.53-2.04-.01,0-.03-.01-.04-.02-.99-.47-1.96-1.01-2.89-1.59,2.33-1.72,4.43-3.76,6.24-6.04.16.11.32.23.49.35,3.22,2.21,6.51,3.76,9.86,4.66,1.66.45,3.34.73,5.03.85,5.66.4,10.43-1.1,14.3-4.48,3.87-3.39,6.02-7.94,6.46-13.64.43-6.83-1.53-13.35-5.88-19.56-.59-.84-1.22-1.67-1.89-2.49-2.31-2.92-5.03-5.45-8.15-7.6-3.22-2.21-6.51-3.76-9.86-4.66-1.66-.45-3.34-.73-5.03-.85-3.57-.25-6.79.25-9.65,1.51-.69-.6-1.41-1.17-2.15-1.71,1.38-.85,2.84-1.6,4.37-2.22,2.37-.97,4.84-1.64,7.35-2.03.07-.01.13-.02.2-.03.1-.02.2-.03.3-.05.16-.02.32-.04.48-.06,1.11-.14,2.22-.22,3.34-.25.18,0,.36,0,.54,0h.26c.09,0,.18,0,.27,0,.18,0,.35,0,.53,0,2.39.06,4.78.37,7.1.93.07.02.14.04.22.06,1.48.37,2.93.84,4.34,1.42,6.28,2.56,11.62,7.48,15.04,13.42.19.32.36.63.54.96.15.28.3.57.44.86.02.02.03.05.04.08.07.14.14.29.21.43.08.16.16.33.23.5.07.14.13.29.19.43.07.15.14.31.2.47.07.18.15.35.21.53.07.18.14.36.21.54.28.75.54,1.51.75,2.28.2.7.36,1.4.51,2.1.01.05.02.1.03.15.07.32.13.65.19.97.02.1.03.21.05.31.05.29.1.58.13.87.05.4.1.79.14,1.19.02.22.04.43.06.65.02.32.04.63.06.95,0,.15.01.31.02.47,0,.16,0,.32.01.47,0,.29,0,.58,0,.88,0,.16,0,.32-.01.47Z"/>
      <path class="cls-1" d="M411.58,61.77s-.05-.08-.08-.13c-.07-.11-.13-.22-.2-.34-.09-.16-.18-.32-.27-.48-.09-.16-.18-.32-.26-.48-.15-.28-.3-.57-.44-.86-.17-.33-.33-.67-.48-1.01-.07-.14-.13-.29-.19-.43-.07-.15-.14-.31-.2-.47-.07-.16-.13-.32-.19-.48-.14-.36-.28-.73-.41-1.1-.16-.44-.3-.89-.44-1.34-.14-.49-.28-.98-.4-1.48-.27-1.09-.48-2.17-.63-3.25-.06-.43-.12-.87-.16-1.3-.02-.22-.04-.43-.06-.65-.02-.32-.04-.63-.06-.95,0-.15-.01-.31-.02-.47v-.47c-.01-.29-.01-.58-.01-.88,0-.16,0-.32.01-.47,0-.16.01-.32.02-.47.02-.31.03-.63.06-.94.02-.22.04-.43.06-.65.04-.39.09-.79.14-1.18.04-.31.09-.63.15-.94.01-.07.02-.14.04-.22.06-.35.13-.71.2-1.06,0-.01,0-.02,0-.03.15-.72.32-1.44.53-2.17,1-3.52,2.59-6.83,4.68-9.78.74.58,1.46,1.19,2.16,1.83-1.17,2.35-1.88,5.02-2.11,8.01-.43,6.83,1.53,13.35,5.88,19.56.57.81,1.17,1.61,1.82,2.41.01.02.02.03.04.05.94,1.19,1.95,2.31,3.02,3.37-.88,1.47-1.99,2.79-3.34,3.96-1,.88-2.07,1.61-3.19,2.21-.43-.4-.85-.8-1.25-1.22-1.72-1.79-3.2-3.7-4.43-5.72Z"/>
    </g>
  </g>
</svg>